<svg xmlns="http://www.w3.org/2000/svg" xmlns:xlink="http://www.w3.org/1999/xlink" width="500" zoomAndPan="magnify" viewBox="0 0 375 374.999991" height="500" preserveAspectRatio="xMidYMid meet" version="1.0"><defs><g/><clipPath id="062c8864f4"><path d="M 30.199219 28.828125 L 344.449219 28.828125 L 344.449219 343.078125 L 30.199219 343.078125 Z M 30.199219 28.828125 " clip-rule="nonzero"/></clipPath><clipPath id="7547e53739"><path d="M 197 258 L 200 258 L 200 274.582031 L 197 274.582031 Z M 197 258 " clip-rule="nonzero"/></clipPath><clipPath id="3d6a8d9352"><path d="M 141 97.582031 L 219 97.582031 L 219 133 L 141 133 Z M 141 97.582031 " clip-rule="nonzero"/></clipPath><clipPath id="ce5551eb6e"><path d="M 93.429688 157 L 126 157 L 126 170 L 93.429688 170 Z M 93.429688 157 " clip-rule="nonzero"/></clipPath><clipPath id="477a5f805b"><path d="M 58.71875 186.128906 L 93.429688 186.128906 L 93.429688 219.210938 L 58.71875 219.210938 Z M 58.71875 186.128906 " clip-rule="nonzero"/></clipPath><clipPath id="09a17aa78f"><path d="M 76.074219 186.128906 L 80.171875 198.765625 L 93.429688 198.765625 L 82.703125 206.574219 L 86.800781 219.210938 L 76.074219 211.402344 L 65.347656 219.210938 L 69.445312 206.574219 L 58.71875 198.765625 L 71.976562 198.765625 L 76.074219 186.128906 " clip-rule="nonzero"/></clipPath><clipPath id="0c177a3186"><path d="M 281.570312 186.128906 L 316.28125 186.128906 L 316.28125 219.210938 L 281.570312 219.210938 Z M 281.570312 186.128906 " clip-rule="nonzero"/></clipPath><clipPath id="a60f3e2e03"><path d="M 298.925781 186.128906 L 303.023438 198.765625 L 316.28125 198.765625 L 305.554688 206.574219 L 309.652344 219.210938 L 298.925781 211.402344 L 288.199219 219.210938 L 292.296875 206.574219 L 281.570312 198.765625 L 294.828125 198.765625 L 298.925781 186.128906 " clip-rule="nonzero"/></clipPath><clipPath id="bb6750fa06"><path d="M 180.027344 274.671875 L 214.742188 274.671875 L 214.742188 307.757812 L 180.027344 307.757812 Z M 180.027344 274.671875 " clip-rule="nonzero"/></clipPath><clipPath id="f2e3f28102"><path d="M 197.386719 274.671875 L 201.480469 287.308594 L 214.742188 287.308594 L 204.015625 295.117188 L 208.113281 307.757812 L 197.386719 299.945312 L 186.660156 307.757812 L 190.753906 295.117188 L 180.027344 287.308594 L 193.289062 287.308594 L 197.386719 274.671875 " clip-rule="nonzero"/></clipPath></defs><g clip-path="url(#062c8864f4)"><path fill="#000000" d="M 187.324219 28.828125 C 100.6875 28.828125 30.199219 99.316406 30.199219 185.953125 C 30.199219 272.59375 100.6875 343.078125 187.324219 343.078125 C 273.960938 343.078125 344.449219 272.59375 344.449219 185.953125 C 344.449219 99.316406 273.960938 28.828125 187.324219 28.828125 Z M 187.324219 338.984375 C 102.945312 338.984375 34.296875 270.332031 34.296875 185.957031 C 34.296875 101.574219 102.945312 32.925781 187.324219 32.925781 C 271.703125 32.925781 340.355469 101.574219 340.355469 185.957031 C 340.355469 270.332031 271.703125 338.984375 187.324219 338.984375 Z M 187.324219 338.984375 " fill-opacity="1" fill-rule="nonzero"/></g><path fill="#000000" d="M 187.324219 41.09375 C 107.449219 41.09375 42.464844 106.078125 42.464844 185.953125 C 42.464844 265.828125 107.449219 330.8125 187.324219 330.8125 C 267.203125 330.8125 332.183594 265.828125 332.183594 185.953125 C 332.183594 106.082031 267.203125 41.09375 187.324219 41.09375 Z M 187.324219 41.09375 " fill-opacity="1" fill-rule="nonzero"/><path fill="#231f20" d="M 161.042969 237.621094 C 161.042969 237.621094 162.007812 239.382812 163.449219 242.023438 C 164.164062 243.34375 165 244.886719 165.890625 246.535156 C 166.769531 248.191406 167.734375 249.945312 168.730469 251.679688 C 169.691406 253.429688 170.671875 255.171875 171.652344 256.761719 C 172.632812 258.351562 173.519531 259.859375 174.394531 261.070312 C 174.824219 261.683594 175.203125 262.257812 175.585938 262.726562 C 175.964844 263.195312 176.253906 263.652344 176.570312 263.949219 C 177.164062 264.597656 177.5 264.96875 177.5 264.96875 C 177.5 264.96875 177.109375 264.652344 176.425781 264.09375 C 176.070312 263.824219 175.730469 263.40625 175.289062 262.976562 C 174.84375 262.546875 174.394531 262.015625 173.925781 261.417969 C 172.96875 260.246094 171.90625 258.835938 170.886719 257.242188 C 169.859375 255.65625 168.828125 253.925781 167.824219 252.183594 C 166.863281 250.414062 165.933594 248.632812 165.09375 246.949219 C 164.25 245.261719 163.546875 243.652344 162.929688 242.277344 C 161.722656 239.519531 161.042969 237.621094 161.042969 237.621094 " fill-opacity="1" fill-rule="nonzero"/><g clip-path="url(#7547e53739)"><path fill="#231f20" d="M 199.339844 274.574219 C 199.339844 274.574219 198.613281 270.523438 198.058594 266.429688 C 197.777344 264.382812 197.53125 262.332031 197.449219 260.75 C 197.371094 259.976562 197.390625 259.277344 197.417969 258.777344 C 197.4375 258.28125 197.445312 258 197.445312 258 L 199.410156 258.386719 C 199.410156 258.386719 199.375 258.609375 199.316406 259.007812 C 199.246094 259.402344 199.152344 259.984375 199.136719 260.753906 C 199.03125 262.25 199.023438 264.308594 199.054688 266.355469 C 199.113281 270.460938 199.339844 274.574219 199.339844 274.574219 " fill-opacity="1" fill-rule="nonzero"/></g><g clip-path="url(#3d6a8d9352)"><path fill="#231f20" d="M 217.308594 125.757812 C 217.308594 125.757812 217.445312 124.109375 217.3125 121.261719 C 217.261719 119.835938 217.105469 118.113281 216.808594 116.179688 C 216.488281 114.257812 216.019531 112.089844 215.132812 109.925781 C 214.246094 107.777344 212.921875 105.621094 211 104.007812 C 209.085938 102.382812 206.53125 101.472656 203.734375 101.28125 C 200.929688 101.105469 197.953125 101.53125 194.964844 102.289062 C 193.46875 102.644531 191.984375 103.207031 190.484375 103.65625 C 189.011719 104.253906 187.535156 104.855469 186.054688 105.457031 C 184.601562 106.128906 183.140625 106.796875 181.691406 107.46875 C 180.269531 108.21875 178.851562 108.960938 177.449219 109.703125 C 174.675781 111.257812 171.921875 112.769531 169.328125 114.371094 C 166.757812 116.003906 164.203125 117.480469 161.886719 119.050781 C 159.550781 120.601562 157.289062 122 155.28125 123.40625 C 153.242188 124.769531 151.371094 126.023438 149.714844 127.136719 C 148.070312 128.273438 146.636719 129.257812 145.453125 130.074219 C 143.058594 131.667969 141.683594 132.574219 141.683594 132.574219 C 141.683594 132.574219 142.882812 131.445312 144.976562 129.472656 C 147.074219 127.5 150.128906 124.746094 153.964844 121.632812 C 155.839844 120.023438 157.972656 118.402344 160.238281 116.703125 C 162.472656 114.953125 164.945312 113.261719 167.511719 111.515625 C 168.773438 110.621094 170.132812 109.8125 171.484375 108.957031 C 172.847656 108.117188 174.183594 107.207031 175.644531 106.453125 C 177.085938 105.671875 178.539062 104.886719 179.996094 104.09375 C 181.5 103.375 183.007812 102.65625 184.519531 101.933594 C 186.089844 101.324219 187.660156 100.710938 189.222656 100.101562 C 190.851562 99.628906 192.433594 99.0625 194.078125 98.691406 C 197.347656 97.886719 200.757812 97.59375 204.082031 97.925781 C 207.40625 98.25 210.660156 99.675781 212.90625 101.878906 C 215.199219 104.054688 216.464844 106.75 217.207031 109.203125 C 217.976562 111.671875 218.179688 114.003906 218.265625 116.039062 C 218.351562 118.078125 218.230469 119.84375 218.074219 121.285156 C 217.933594 122.730469 217.710938 123.847656 217.566406 124.601562 C 217.398438 125.355469 217.308594 125.757812 217.308594 125.757812 " fill-opacity="1" fill-rule="nonzero"/></g><path fill="#231f20" d="M 180.265625 112.789062 L 158.132812 166.285156 L 138.730469 221.050781 C 129.265625 206.167969 107.265625 200.492188 107.265625 200.492188 L 118.652344 194.382812 C 112.007812 192.152344 97.929688 192.601562 97.929688 192.601562 C 106.71875 185.03125 117.523438 163.039062 117.523438 163.039062 C 117.523438 163.039062 109.554688 166.332031 97.191406 164.691406 C 99.097656 164.105469 109.9375 161.230469 119.996094 147.945312 C 128.097656 137.25 152.628906 115.078125 180.265625 112.789062 " fill-opacity="1" fill-rule="nonzero"/><path fill="#231f20" d="M 107.996094 200.414062 C 111.703125 201.5 130.035156 207.410156 138.65625 220.433594 L 157.875 166.191406 L 179.839844 113.101562 C 153.949219 115.453125 129.558594 135.777344 120.210938 148.113281 C 115.902344 153.800781 108.679688 161.191406 98.488281 164.570312 C 100.355469 164.773438 102.21875 164.875 104.046875 164.875 C 112.269531 164.875 117.367188 162.808594 117.417969 162.789062 L 118.089844 162.511719 L 117.769531 163.160156 C 117.664062 163.375 107.296875 184.371094 98.664062 192.308594 C 99.183594 192.296875 99.949219 192.289062 100.878906 192.289062 C 105.511719 192.289062 113.984375 192.527344 118.738281 194.128906 L 119.339844 194.328125 L 107.996094 200.414062 M 138.800781 221.675781 L 138.5 221.199219 C 129.199219 206.574219 107.414062 200.816406 107.195312 200.753906 L 106.515625 200.582031 L 117.945312 194.449219 C 113.175781 193.050781 105.28125 192.835938 100.878906 192.835938 C 99.105469 192.835938 97.945312 192.875 97.945312 192.875 L 97.15625 192.894531 L 97.746094 192.394531 C 105.578125 185.652344 115.144531 167.140625 116.96875 163.53125 C 115.320312 164.089844 110.675781 165.425781 104.046875 165.425781 C 101.777344 165.425781 99.460938 165.269531 97.15625 164.964844 L 95.914062 164.796875 L 97.355469 164.355469 C 107.917969 161.179688 115.378906 153.589844 119.773438 147.78125 C 129.234375 135.300781 154.007812 114.683594 180.242188 112.515625 L 180.691406 112.476562 L 180.519531 112.890625 L 158.386719 166.386719 L 138.800781 221.675781 " fill-opacity="1" fill-rule="nonzero"/><path fill="#231f20" d="M 148.316406 258.347656 C 148.316406 258.347656 139.085938 218.824219 129.265625 206.167969 C 129.265625 206.167969 121.121094 179.507812 134.023438 158.652344 L 156.46875 166.886719 L 148.316406 258.347656 " fill-opacity="1" fill-rule="nonzero"/><path fill="#231f20" d="M 129.515625 206.042969 C 138.113281 217.175781 146.324219 249.085938 148.191406 256.660156 L 156.175781 167.070312 L 134.140625 158.984375 C 121.871094 179.0625 129.144531 204.769531 129.515625 206.042969 M 148.4375 260.074219 L 148.046875 258.40625 C 147.957031 258.011719 138.722656 218.800781 129.050781 206.335938 L 129.003906 206.246094 C 128.921875 205.980469 120.972656 179.226562 133.789062 158.507812 L 133.90625 158.316406 L 156.761719 166.699219 L 156.742188 166.910156 L 148.4375 260.074219 " fill-opacity="1" fill-rule="nonzero"/><path fill="#231f20" d="M 223.414062 227.027344 C 223.414062 227.027344 223.777344 246.527344 220.777344 254.980469 C 220.777344 254.980469 230.1875 234.085938 231.175781 218.285156 C 231.175781 218.285156 233.265625 233.742188 230.1875 246.183594 C 230.1875 246.183594 238.894531 237.328125 242.1875 201.984375 C 242.1875 201.984375 241.160156 240.652344 238.894531 248.949219 C 238.894531 248.949219 253.003906 226.714844 250.871094 181.101562 C 250.871094 181.101562 257.089844 195.210938 250.753906 240.3125 C 250.753906 240.3125 281.429688 137.53125 218.949219 126.265625 L 223.414062 227.027344 " fill-opacity="1" fill-rule="nonzero"/><path fill="#231f20" d="M 219.238281 126.597656 L 223.691406 227.011719 C 223.691406 227.191406 223.9375 241.890625 222.050781 251.257812 C 224.75 244.585938 230.167969 229.949219 230.898438 218.269531 L 231.445312 218.246094 C 231.46875 218.394531 233.378906 232.910156 230.738281 245.039062 C 232.910156 241.941406 239.238281 230.691406 241.914062 201.953125 L 242.464844 201.988281 C 242.425781 203.472656 241.527344 236.335938 239.5625 247.183594 C 242.625 241.292969 252.382812 219.320312 250.597656 181.117188 L 250.527344 179.644531 L 251.125 180.992188 C 251.183594 181.128906 256.910156 194.761719 251.597656 236.097656 C 255.207031 221.796875 265.445312 173.789062 248.410156 146.105469 C 241.914062 135.5625 232.105469 128.996094 219.238281 126.597656 M 221.03125 255.097656 L 220.519531 254.890625 C 223.464844 246.582031 223.144531 227.226562 223.140625 227.03125 L 218.660156 125.933594 L 218.996094 125.996094 C 232.191406 128.371094 242.242188 135.042969 248.878906 145.816406 C 269.09375 178.664062 251.199219 239.773438 251.019531 240.386719 L 250.484375 240.269531 C 255.484375 204.683594 252.613281 188.335938 251.230469 183.140625 C 252.832031 226.949219 239.265625 248.871094 239.128906 249.097656 L 238.152344 250.632812 L 238.632812 248.878906 C 240.257812 242.90625 241.257812 220.808594 241.679688 209.203125 C 238.019531 238.296875 230.714844 246.039062 230.382812 246.375 L 229.679688 247.09375 L 229.925781 246.121094 C 232.175781 236.996094 231.628906 226.132812 231.191406 221.113281 C 229.40625 236.359375 221.117188 254.898438 221.03125 255.097656 " fill-opacity="1" fill-rule="nonzero"/><path fill="#ffffff" d="M 146.453125 221.890625 C 146.070312 221.890625 145.644531 221.84375 145.152344 221.746094 C 140.941406 220.90625 131.433594 215.960938 127.464844 209.085938 C 125.539062 205.757812 125.136719 202.386719 126.261719 199.070312 C 126.359375 198.613281 128.917969 187.226562 135.175781 183.730469 C 135.230469 183.695312 136.535156 182.980469 138.15625 182.980469 C 140.078125 182.980469 142.59375 183.996094 143.664062 188.832031 L 148.773438 216.671875 C 148.804688 216.738281 149.773438 219.378906 148.726562 220.890625 C 148.265625 221.554688 147.5 221.890625 146.453125 221.890625 " fill-opacity="1" fill-rule="nonzero"/><path fill="#231f20" d="M 138.15625 182.707031 C 136.464844 182.707031 135.097656 183.453125 135.042969 183.488281 C 128.675781 187.046875 126.09375 198.550781 125.984375 199.039062 C 124.847656 202.378906 125.261719 205.820312 127.226562 209.21875 C 131.238281 216.164062 140.84375 221.167969 145.097656 222.015625 C 145.589844 222.113281 146.039062 222.164062 146.453125 222.164062 C 147.59375 222.164062 148.4375 221.789062 148.953125 221.046875 C 150.082031 219.421875 149.0625 216.644531 149.019531 216.527344 L 143.941406 188.792969 C 142.824219 183.761719 140.179688 182.707031 138.15625 182.707031 M 138.15625 183.257812 C 140.054688 183.257812 142.382812 184.292969 143.398438 188.894531 L 148.503906 216.722656 C 148.503906 216.722656 150.335938 221.617188 146.453125 221.617188 C 146.085938 221.617188 145.675781 221.570312 145.203125 221.472656 C 139.707031 220.378906 122.488281 211.046875 126.523438 199.15625 C 126.523438 199.15625 129.085938 187.445312 135.308594 183.964844 C 135.308594 183.964844 136.585938 183.257812 138.15625 183.257812 " fill-opacity="1" fill-rule="nonzero"/><path fill="#d3d2d2" d="M 147.332031 215.335938 C 146.808594 215.289062 146.105469 215.222656 145.285156 215.152344 C 145.09375 215.132812 144.898438 215.117188 144.695312 215.097656 C 144.753906 214.253906 144.8125 213.417969 144.871094 212.59375 C 144.960938 212.597656 145.050781 212.597656 145.144531 212.597656 C 145.453125 212.597656 145.761719 212.574219 146.058594 212.527344 C 146.566406 213.59375 147.003906 214.570312 147.332031 215.335938 M 145.144531 211.5 C 145.078125 211.5 145.015625 211.5 144.953125 211.496094 C 144.976562 211.152344 145.003906 210.8125 145.027344 210.472656 C 145.207031 210.808594 145.378906 211.148438 145.546875 211.484375 C 145.414062 211.496094 145.28125 211.5 145.144531 211.5 " fill-opacity="1" fill-rule="nonzero"/><path fill="#231f20" d="M 129.265625 198.148438 C 129.265625 198.148438 129.691406 197.007812 130.527344 195.378906 C 130.9375 194.558594 131.476562 193.632812 132.105469 192.664062 C 132.742188 191.707031 133.496094 190.71875 134.390625 189.835938 C 134.847656 189.402344 135.300781 188.964844 135.839844 188.628906 C 136.328125 188.222656 136.917969 187.980469 137.480469 187.71875 C 138.046875 187.476562 138.675781 187.394531 139.242188 187.289062 C 139.824219 187.324219 140.398438 187.28125 140.890625 187.398438 C 141.382812 187.554688 141.828125 187.691406 142.230469 187.820312 C 142.59375 187.996094 142.890625 188.195312 143.140625 188.335938 C 143.644531 188.640625 143.933594 188.8125 143.933594 188.8125 L 142.898438 190.097656 C 142.898438 190.097656 142.671875 189.9375 142.285156 189.660156 C 142.085938 189.527344 141.859375 189.332031 141.574219 189.160156 C 141.273438 189.039062 140.933594 188.902344 140.5625 188.753906 C 140.183594 188.621094 139.75 188.632812 139.296875 188.550781 C 138.84375 188.609375 138.34375 188.621094 137.851562 188.78125 C 137.363281 188.960938 136.839844 189.117188 136.367188 189.445312 C 135.859375 189.707031 135.40625 190.078125 134.945312 190.445312 C 134.039062 191.199219 133.230469 192.089844 132.527344 192.976562 C 131.832031 193.859375 131.226562 194.730469 130.75 195.503906 C 129.785156 197.046875 129.265625 198.148438 129.265625 198.148438 " fill-opacity="1" fill-rule="nonzero"/><path fill="#231f20" d="M 130.828125 207.574219 C 130.828125 207.574219 130.980469 207.855469 131.328125 208.285156 C 131.632812 208.746094 132.207031 209.296875 132.851562 209.980469 C 133.214844 210.28125 133.609375 210.605469 134.027344 210.941406 C 134.425781 211.304688 134.902344 211.617188 135.414062 211.902344 C 135.917969 212.203125 136.433594 212.515625 136.960938 212.832031 C 137.527344 213.070312 138.101562 213.304688 138.679688 213.546875 C 139.261719 213.761719 139.808594 214.078125 140.410156 214.199219 C 141.007812 214.34375 141.589844 214.480469 142.15625 214.621094 C 142.722656 214.757812 143.269531 214.890625 143.785156 215.015625 C 144.316406 215.0625 144.820312 215.109375 145.285156 215.152344 C 147.132812 215.320312 148.363281 215.425781 148.363281 215.425781 L 148.265625 217.070312 C 148.265625 217.070312 146.984375 216.851562 145.0625 216.523438 C 144.585938 216.441406 144.070312 216.347656 143.519531 216.253906 C 142.992188 216.078125 142.429688 215.894531 141.851562 215.703125 C 141.277344 215.511719 140.6875 215.320312 140.082031 215.117188 C 139.46875 214.945312 138.921875 214.5625 138.335938 214.292969 C 137.765625 214.003906 137.195312 213.707031 136.628906 213.417969 C 136.113281 213.046875 135.609375 212.683594 135.117188 212.332031 C 134.617188 211.996094 134.160156 211.636719 133.78125 211.234375 C 133.382812 210.851562 133.011719 210.492188 132.664062 210.160156 C 132.066406 209.410156 131.539062 208.816406 131.265625 208.324219 C 130.953125 207.863281 130.828125 207.574219 130.828125 207.574219 " fill-opacity="1" fill-rule="nonzero"/><path fill="#231f20" d="M 139.1875 192.703125 C 137.558594 192.703125 136.210938 194.019531 135.179688 196.617188 C 134.023438 199.535156 134.558594 202.976562 136.65625 206.0625 C 138.832031 209.265625 142.320312 211.5 145.144531 211.5 C 145.347656 211.5 145.542969 211.488281 145.734375 211.464844 L 142.675781 194.359375 C 142.269531 193.976562 140.796875 192.703125 139.1875 192.703125 M 145.144531 212.597656 C 141.929688 212.597656 138.152344 210.21875 135.746094 206.679688 C 133.441406 203.289062 132.863281 199.472656 134.160156 196.207031 C 135.371094 193.15625 137.0625 191.605469 139.1875 191.605469 C 141.558594 191.605469 143.503906 193.628906 143.589844 193.710938 L 143.699219 193.832031 L 147.007812 212.324219 L 146.503906 212.445312 C 146.070312 212.546875 145.613281 212.597656 145.144531 212.597656 " fill-opacity="1" fill-rule="nonzero"/><path fill="#ffffff" d="M 198.300781 258.621094 C 197.308594 258.621094 196.222656 258.328125 195.070312 257.761719 C 194.710938 257.660156 154.53125 245.632812 148.234375 216.78125 C 148.226562 216.761719 145.9375 210.949219 143.417969 207.175781 C 143.355469 207.144531 140.542969 204.914062 140.441406 202 C 140.390625 200.503906 141.066406 199.109375 142.457031 197.855469 C 142.402344 197.855469 143.804688 190.292969 142.742188 185.3125 C 142.6875 184.78125 138.722656 135.832031 171.519531 124.183594 C 171.625 124.160156 179.792969 122.125 190.484375 122.125 C 203.09375 122.125 220.535156 124.96875 232.058594 138.53125 C 243.558594 152.070312 246.976562 173.570312 242.214844 202.433594 C 242.1875 202.566406 239.847656 216.105469 236.71875 230.625 C 236.714844 230.675781 235.777344 238.332031 228.335938 243.0625 C 216.386719 250.664062 200.863281 257.777344 200.710938 257.851562 C 200.734375 257.851562 199.921875 258.621094 198.300781 258.621094 " fill-opacity="1" fill-rule="nonzero"/><path fill="#231f20" d="M 190.484375 121.847656 C 179.761719 121.847656 171.558594 123.890625 171.476562 123.910156 C 138.433594 135.644531 142.417969 184.804688 142.457031 185.300781 C 143.445312 189.894531 142.339844 196.613281 142.132812 197.78125 C 140.777344 199.058594 140.113281 200.480469 140.171875 202.007812 C 140.265625 204.824219 142.765625 207.007812 143.234375 207.398438 C 145.71875 211.148438 147.96875 216.863281 147.992188 216.921875 C 154.296875 245.851562 194.632812 257.921875 195.039062 258.042969 C 196.136719 258.59375 197.265625 258.894531 198.300781 258.894531 C 199.769531 258.894531 200.632812 258.285156 200.898438 258.0625 C 202.078125 257.523438 216.945312 250.632812 228.480469 243.296875 C 236.035156 238.492188 236.960938 230.945312 236.996094 230.628906 C 240.117188 216.15625 242.460938 202.613281 242.484375 202.480469 C 247.257812 173.53125 243.824219 151.957031 232.265625 138.355469 C 220.675781 124.710938 203.144531 121.847656 190.484375 121.847656 M 190.484375 122.398438 C 215 122.398438 253.394531 132.992188 241.941406 202.386719 C 241.941406 202.386719 239.613281 215.882812 236.453125 230.570312 C 236.453125 230.570312 235.605469 238.113281 228.183594 242.832031 C 216.117188 250.507812 200.59375 257.601562 200.59375 257.601562 C 200.59375 257.601562 199.847656 258.347656 198.300781 258.347656 C 197.488281 258.347656 196.457031 258.140625 195.195312 257.511719 C 195.195312 257.511719 154.839844 245.75 148.503906 216.722656 C 148.503906 216.722656 146.210938 210.871094 143.644531 207.023438 C 143.644531 207.023438 137.78125 202.441406 142.640625 198.058594 C 142.640625 198.058594 144.109375 190.375 143.003906 185.25 C 143.003906 185.25 138.636719 136.152344 171.609375 124.445312 C 171.609375 124.445312 179.703125 122.398438 190.484375 122.398438 " fill-opacity="1" fill-rule="nonzero"/><path fill="#d3d2d2" d="M 194.199219 257.199219 C 194.1875 257.195312 194.171875 257.191406 194.160156 257.1875 C 190.144531 255.875 175.210938 250.535156 163.339844 240.125 C 160.9375 224.191406 162.027344 206.925781 164.253906 191.796875 C 163.050781 212.300781 166.195312 227.789062 166.230469 227.984375 L 167.320312 227.855469 C 167.039062 220.191406 167.300781 213.011719 167.921875 206.398438 C 168.230469 207.589844 168.476562 208.195312 168.476562 208.195312 C 169.972656 208.835938 171.574219 209.257812 173.171875 209.523438 C 171.996094 217.859375 173.023438 231.378906 173.023438 231.378906 C 170.277344 224.796875 169.21875 211.832031 169.21875 211.832031 C 168.433594 225.21875 168.921875 232.910156 168.921875 232.910156 L 165.140625 229.003906 C 165.292969 229.496094 165.140625 238.519531 194.199219 257.199219 M 158.390625 235.25 C 157.933594 234.742188 157.484375 234.222656 157.050781 233.695312 C 157.046875 233.691406 157.042969 233.691406 157.039062 233.683594 C 155.46875 231.785156 154.03125 229.761719 152.78125 227.609375 C 152.34375 220.535156 152.511719 212.664062 152.890625 205.632812 C 153.574219 217.570312 155.984375 227.742188 158.390625 235.25 M 232.726562 218.671875 C 233.773438 215.109375 234.355469 211.59375 234.65625 208.394531 C 235.570312 206.628906 236.625 204.367188 237.417969 202.0625 C 237.417969 202.066406 237.417969 202.070312 237.417969 202.070312 C 237.417969 202.070312 238.054688 200.996094 238.816406 199.78125 C 238.574219 206.375 238.085938 210.816406 238.070312 210.960938 L 238.035156 211.273438 C 234.871094 217.015625 232.726562 218.671875 232.726562 218.671875 M 147.179688 213.628906 C 146.609375 212.378906 145.894531 210.890625 145.105469 209.453125 C 145.371094 206 145.648438 202.777344 145.902344 199.980469 C 146.125 204.921875 146.589844 209.5 147.179688 213.628906 M 197.304688 213 C 194.65625 205.875 193.40625 186.902344 193.40625 186.902344 C 191.886719 201.648438 188.636719 208.664062 188.636719 208.664062 C 187.863281 208.621094 187.042969 208.550781 186.207031 208.457031 C 188.167969 206.136719 189.5625 201.675781 190.484375 197.703125 C 191.042969 195.285156 191.421875 193.054688 191.644531 191.59375 C 191.808594 190.515625 191.886719 189.859375 191.886719 189.859375 C 189.460938 187.085938 186.878906 185.515625 184.5 184.664062 C 184.46875 183.691406 184.445312 182.734375 184.4375 181.800781 C 184.539062 181.832031 184.644531 181.859375 184.742188 181.882812 C 185.566406 182.105469 186.28125 182.558594 187.019531 182.84375 C 187.769531 183.117188 188.339844 183.636719 188.941406 183.996094 C 189.511719 184.394531 190.097656 184.699219 190.515625 185.09375 C 190.960938 185.464844 191.347656 185.785156 191.664062 186.050781 C 192.308594 186.582031 192.699219 186.875 192.699219 186.875 C 192.699219 186.875 192.421875 186.488281 191.894531 185.828125 C 191.628906 185.5 191.304688 185.101562 190.929688 184.640625 C 190.585938 184.148438 190.0625 183.734375 189.5 183.257812 C 189.347656 183.140625 189.199219 183.011719 189.046875 182.875 C 191.632812 183.84375 193.859375 184.058594 195.316406 184.058594 C 196.449219 184.058594 197.117188 183.925781 197.117188 183.925781 C 197.351562 183.851562 197.582031 183.773438 197.796875 183.695312 C 196.296875 198.3125 197.304688 213 197.304688 213 M 241.054688 205.097656 C 241.410156 203.90625 241.75 202.730469 242.074219 201.566406 C 242.03125 201.839844 241.988281 202.113281 241.941406 202.386719 C 241.941406 202.390625 241.921875 202.496094 241.886719 202.695312 C 241.855469 202.878906 241.8125 203.136719 241.753906 203.464844 C 241.519531 204.03125 241.285156 204.574219 241.054688 205.097656 M 238.949219 191.648438 C 235.492188 189.164062 231.898438 188.351562 228.683594 188.351562 C 225.519531 188.351562 222.722656 189.136719 220.769531 189.886719 C 220.980469 188.734375 220.976562 187.714844 220.898438 186.902344 C 220.917969 186.902344 220.941406 186.902344 220.964844 186.902344 C 221.117188 186.902344 221.277344 186.894531 221.4375 186.875 C 221.4375 186.875 230.6875 181.199219 238.5625 180.84375 C 238.824219 184.582031 238.933594 188.242188 238.949219 191.648438 M 171.125 186.242188 C 171.378906 185.140625 171.632812 184.074219 171.894531 183.027344 C 171.921875 183.015625 171.953125 183.003906 171.984375 182.992188 C 172.707031 182.644531 173.5 182.371094 174.3125 182.078125 C 175.113281 181.761719 175.996094 181.617188 176.859375 181.382812 C 177.640625 181.292969 178.429688 181.097656 179.226562 181.097656 C 179.328125 181.097656 179.433594 181.101562 179.539062 181.109375 C 179.707031 181.109375 179.875 181.105469 180.042969 181.097656 C 180.15625 182.011719 180.273438 182.902344 180.402344 183.78125 C 179.960938 183.746094 179.539062 183.730469 179.144531 183.730469 C 176.9375 183.730469 175.496094 184.191406 175.496094 184.191406 L 171.125 186.242188 M 172.304688 181.425781 C 172.917969 179.082031 173.550781 176.894531 174.183594 174.867188 C 176.386719 175.589844 178.363281 176.398438 179.621094 176.945312 C 179.6875 177.792969 179.769531 178.632812 179.855469 179.464844 C 179.734375 179.46875 179.613281 179.46875 179.492188 179.46875 C 179.421875 179.464844 179.351562 179.464844 179.285156 179.464844 C 178.34375 179.464844 177.433594 179.699219 176.523438 179.832031 C 175.578125 180.089844 174.640625 180.347656 173.796875 180.730469 C 173.273438 180.9375 172.773438 181.171875 172.304688 181.425781 M 226.363281 180.839844 C 226.570312 173.160156 220.476562 160.699219 220.476562 160.699219 L 209.566406 162.496094 C 209.464844 162.488281 209.363281 162.488281 209.265625 162.488281 C 202.730469 162.488281 199.777344 171.550781 199.777344 171.550781 C 199.183594 174.015625 198.710938 176.621094 198.332031 179.285156 C 191.988281 178.761719 185.589844 174.828125 185.589844 174.828125 C 185.269531 174.636719 184.945312 174.449219 184.621094 174.265625 C 185.203125 164.636719 187.082031 157.390625 189.234375 152.066406 C 195.308594 153.027344 201.699219 154.609375 201.789062 154.632812 L 203.679688 155.097656 L 199.8125 152.871094 C 203.992188 154.097656 211.816406 157.699219 213.878906 158.664062 C 213.96875 158.820312 214.019531 158.910156 214.027344 158.917969 L 214.246094 159.308594 L 214.671875 159.179688 C 215.027344 159.0625 215.375 158.859375 215.707031 158.601562 C 219.402344 157.570312 225.148438 156.042969 226.195312 156.042969 L 226.199219 156.042969 L 226.304688 155.503906 L 223.28125 154.679688 C 224.886719 154.273438 228.132812 153.542969 230.554688 153.542969 C 231.441406 153.542969 232.136719 153.636719 232.625 153.832031 L 232.816406 153.90625 C 235.78125 160.429688 237.390625 168.578125 238.207031 176.65625 C 237.917969 176.621094 237.628906 176.605469 237.332031 176.605469 C 236.835938 176.605469 236.324219 176.65625 235.808594 176.769531 C 235.808594 176.769531 231.246094 178.949219 226.363281 180.839844 M 179.328125 171.933594 C 178.039062 171.488281 176.761719 171.121094 175.519531 170.824219 C 177.140625 166.167969 178.660156 162.65625 179.710938 160.414062 C 179.304688 164.300781 179.207031 168.179688 179.328125 171.933594 " fill-opacity="1" fill-rule="nonzero"/><path fill="#231f20" d="M 194.199219 257.199219 C 194.1875 257.195312 194.171875 257.191406 194.160156 257.1875 C 194.171875 257.191406 194.1875 257.195312 194.199219 257.199219 M 157.050781 233.695312 C 157.046875 233.695312 157.042969 233.6875 157.039062 233.683594 C 157.042969 233.691406 157.046875 233.691406 157.050781 233.695312 M 157.039062 233.683594 C 155.46875 231.785156 154.03125 229.761719 152.78125 227.609375 C 154.03125 229.761719 155.46875 231.785156 157.039062 233.683594 M 147.179688 213.628906 C 146.609375 212.378906 145.894531 210.890625 145.105469 209.453125 C 145.894531 210.890625 146.609375 212.378906 147.179688 213.628906 M 241.753906 203.464844 C 241.8125 203.136719 241.855469 202.878906 241.886719 202.695312 C 241.859375 202.875 241.8125 203.128906 241.757812 203.453125 C 241.757812 203.457031 241.753906 203.460938 241.753906 203.464844 M 241.941406 202.386719 C 241.988281 202.113281 242.03125 201.839844 242.074219 201.566406 C 242.03125 201.839844 241.988281 202.117188 241.941406 202.386719 " fill-opacity="1" fill-rule="nonzero"/><path fill="#231f20" d="M 165.980469 186.585938 C 165.980469 186.585938 167.121094 185.011719 169.457031 183.234375 C 170.0625 182.832031 170.6875 182.335938 171.429688 181.933594 C 172.140625 181.484375 172.9375 181.078125 173.796875 180.730469 C 174.640625 180.347656 175.578125 180.089844 176.523438 179.832031 C 177.5 179.6875 178.476562 179.429688 179.492188 179.46875 C 179.996094 179.46875 180.5 179.449219 181 179.476562 L 182.480469 179.703125 C 183.480469 179.78125 184.363281 180.253906 185.261719 180.527344 C 186.160156 180.8125 186.878906 181.402344 187.621094 181.804688 C 188.386719 182.191406 188.921875 182.816406 189.5 183.257812 C 190.0625 183.734375 190.585938 184.148438 190.929688 184.640625 C 191.304688 185.101562 191.628906 185.5 191.894531 185.828125 C 192.421875 186.488281 192.699219 186.875 192.699219 186.875 C 192.699219 186.875 192.308594 186.582031 191.664062 186.050781 C 191.347656 185.785156 190.960938 185.464844 190.515625 185.09375 C 190.097656 184.699219 189.511719 184.394531 188.941406 183.996094 C 188.339844 183.636719 187.769531 183.117188 187.019531 182.84375 C 186.28125 182.558594 185.566406 182.105469 184.742188 181.882812 C 183.917969 181.679688 183.101562 181.324219 182.214844 181.269531 L 180.886719 181.089844 C 180.4375 181.078125 179.988281 181.109375 179.539062 181.109375 C 178.632812 181.046875 177.742188 181.28125 176.859375 181.382812 C 175.996094 181.617188 175.113281 181.761719 174.3125 182.078125 C 173.5 182.371094 172.707031 182.644531 171.984375 182.992188 C 171.238281 183.289062 170.589844 183.691406 169.960938 184.007812 C 168.753906 184.726562 167.714844 185.320312 167.050781 185.816406 C 166.363281 186.289062 165.980469 186.585938 165.980469 186.585938 " fill-opacity="1" fill-rule="nonzero"/><path fill="#ffffff" d="M 191.886719 189.859375 C 191.886719 189.859375 190.023438 205.503906 185.402344 209.253906 C 185.402344 209.253906 175.707031 211.296875 168.476562 208.195312 C 168.476562 208.195312 165.617188 201.183594 167.300781 188.035156 L 175.496094 184.191406 C 175.496094 184.191406 184.425781 181.328125 191.886719 189.859375 " fill-opacity="1" fill-rule="nonzero"/><path fill="#b0aeaf" d="M 190.484375 197.703125 C 191.039062 195.289062 191.421875 193.050781 191.644531 191.59375 C 191.421875 193.054688 191.042969 195.285156 190.484375 197.703125 " fill-opacity="1" fill-rule="nonzero"/><path fill="#d3d2d2" d="M 190.261719 198.628906 C 189.097656 198.238281 187.425781 197.714844 185.507812 197.140625 C 185.011719 193.15625 184.703125 189.414062 184.550781 185.917969 C 186.101562 186.265625 187.648438 186.707031 189.136719 187.25 C 189.460938 187.5 189.785156 187.773438 190.105469 188.058594 C 190.164062 188.117188 190.226562 188.164062 190.289062 188.21875 C 190.429688 188.351562 190.570312 188.488281 190.714844 188.628906 C 190.769531 188.683594 190.824219 188.738281 190.882812 188.792969 C 191.03125 188.945312 191.179688 189.089844 191.328125 189.25 L 191.335938 189.257812 C 191.15625 189.613281 190.996094 189.992188 191.320312 190.363281 C 191.320312 190.363281 191.480469 190.824219 191.644531 191.59375 C 191.421875 193.050781 191.039062 195.289062 190.484375 197.703125 C 190.410156 198.011719 190.339844 198.320312 190.261719 198.628906 M 182.914062 196.382812 C 178.257812 195.054688 172.910156 193.679688 169.707031 193.246094 C 170.113281 190.984375 170.550781 188.8125 171.015625 186.742188 L 174.195312 184.929688 C 174.636719 184.914062 175.09375 184.902344 175.566406 184.902344 C 177.140625 184.902344 178.855469 185.011719 180.621094 185.234375 C 181.289062 189.449219 182.117188 193.246094 182.914062 196.382812 " fill-opacity="1" fill-rule="nonzero"/><path fill="#231f20" d="M 170.738281 207.136719 C 168.5 204.523438 167.355469 200.535156 167.886719 196.421875 C 168.71875 189.945312 173.464844 185.570312 178.484375 186.660156 C 183.5 187.742188 186.894531 193.875 186.054688 200.355469 C 185.511719 204.574219 183.003906 208.128906 180.148438 209.640625 C 180.148438 209.640625 173.5 210.367188 170.738281 207.136719 " fill-opacity="1" fill-rule="nonzero"/><path fill="#231f20" d="M 171.816406 197.9375 C 171.492188 200.449219 173.132812 202.898438 175.484375 203.402344 C 177.828125 203.914062 179.996094 202.289062 180.320312 199.777344 C 180.644531 197.265625 179 194.816406 176.65625 194.308594 C 174.304688 193.800781 172.140625 195.425781 171.816406 197.9375 " fill-opacity="1" fill-rule="nonzero"/><path fill="#ffffff" d="M 177.027344 187.4375 C 177.027344 187.4375 182.613281 187.414062 184.605469 194.28125 C 184.605469 194.28125 185.535156 199.417969 175.839844 196.640625 C 175.839844 196.640625 167.296875 193.554688 173.003906 188.898438 C 173.003906 188.898438 175.210938 187.101562 177.027344 187.4375 " fill-opacity="1" fill-rule="nonzero"/><path fill="#5d5b5d" d="M 183.292969 205.164062 C 183.292969 205.164062 177.578125 214.019531 169.796875 204.269531 C 169.796875 204.269531 167.449219 199.789062 172.222656 203.335938 C 175.726562 205.945312 179.867188 204.984375 180.796875 204.628906 C 181.988281 204.167969 183.71875 203.769531 183.292969 205.164062 " fill-opacity="1" fill-rule="nonzero"/><path fill="#231f20" d="M 165.558594 191.667969 C 163.414062 189.914062 160.945312 189.828125 160.945312 189.828125 C 163.863281 188.578125 167.902344 184.992188 167.902344 184.992188 C 183.128906 176.109375 192.695312 190.824219 192.695312 190.824219 L 191.703125 193.949219 C 183.226562 183.265625 171.074219 186.574219 168.253906 189.738281 C 167.828125 190.742188 167.144531 193.757812 166.769531 196.546875 C 166.769531 196.546875 166.339844 193.839844 165.558594 191.667969 " fill-opacity="1" fill-rule="nonzero"/><path fill="#231f20" d="M 188.636719 208.664062 C 188.636719 208.664062 187.449219 209.066406 185.597656 209.417969 C 184.679688 209.628906 183.59375 209.765625 182.425781 209.925781 C 181.84375 210.015625 181.230469 210.011719 180.617188 210.0625 C 180 210.097656 179.371094 210.15625 178.742188 210.160156 C 178.117188 210.140625 177.488281 210.117188 176.867188 210.089844 C 176.25 210.054688 175.640625 210.074219 175.058594 209.957031 C 174.476562 209.863281 173.914062 209.773438 173.378906 209.683594 C 172.851562 209.574219 172.335938 209.558594 171.890625 209.386719 C 170.109375 208.777344 168.921875 208.371094 168.921875 208.371094 C 168.921875 208.371094 170.132812 208.6875 171.941406 209.160156 C 172.386719 209.308594 172.902344 209.304688 173.429688 209.390625 C 173.957031 209.457031 174.515625 209.527344 175.09375 209.601562 C 175.667969 209.710938 176.277344 209.679688 176.886719 209.703125 C 177.496094 209.722656 178.117188 209.738281 178.738281 209.75 C 179.359375 209.75 179.980469 209.703125 180.59375 209.683594 C 181.207031 209.640625 181.8125 209.652344 182.390625 209.566406 C 183.546875 209.429688 184.644531 209.367188 185.558594 209.195312 C 187.414062 208.949219 188.636719 208.664062 188.636719 208.664062 " fill-opacity="1" fill-rule="nonzero"/><path fill="#231f20" d="M 163.339844 192.035156 C 163.339844 192.035156 165.605469 192.660156 166.222656 191.742188 L 166.933594 194.695312 L 163.339844 192.035156 " fill-opacity="1" fill-rule="nonzero"/><path fill="#231f20" d="M 241.554688 194.679688 C 241.554688 194.679688 241.324219 194.320312 240.878906 193.734375 C 240.457031 193.140625 239.773438 192.34375 238.910156 191.464844 C 238.488281 191.015625 237.988281 190.578125 237.460938 190.121094 C 236.9375 189.664062 236.328125 189.25 235.714844 188.820312 C 235.070312 188.433594 234.414062 188.023438 233.6875 187.726562 C 233 187.351562 232.226562 187.15625 231.472656 186.914062 C 230.714844 186.675781 229.917969 186.605469 229.148438 186.441406 C 228.367188 186.433594 227.589844 186.339844 226.839844 186.339844 C 226.082031 186.410156 225.347656 186.453125 224.648438 186.496094 C 223.953125 186.617188 223.296875 186.734375 222.6875 186.839844 C 221.453125 187 220.46875 187.375 219.75 187.542969 C 219.035156 187.726562 218.613281 187.820312 218.613281 187.820312 C 218.613281 187.820312 218.972656 187.601562 219.628906 187.246094 C 219.957031 187.066406 220.359375 186.859375 220.820312 186.617188 C 221.273438 186.347656 221.816406 186.117188 222.433594 185.929688 C 223.042969 185.722656 223.703125 185.464844 224.429688 185.285156 C 225.160156 185.15625 225.941406 185.011719 226.753906 184.890625 C 227.574219 184.851562 228.4375 184.847656 229.300781 184.859375 C 230.160156 185.011719 231.058594 185.074219 231.90625 185.328125 C 232.753906 185.613281 233.613281 185.863281 234.378906 186.296875 C 235.1875 186.644531 235.871094 187.171875 236.550781 187.644531 C 237.847656 188.664062 238.914062 189.777344 239.636719 190.863281 C 240.402344 191.914062 240.851562 192.898438 241.15625 193.578125 C 241.457031 194.261719 241.554688 194.679688 241.554688 194.679688 " fill-opacity="1" fill-rule="nonzero"/><path fill="#ffffff" d="M 218.277344 192.070312 C 218.277344 192.070312 218.121094 206.269531 219.992188 209.683594 C 219.992188 209.683594 225.839844 212.175781 232.726562 211.859375 C 232.726562 211.859375 238.867188 201.964844 238.605469 195.753906 L 234.578125 191.523438 C 234.578125 191.523438 226.519531 186.894531 218.277344 192.070312 " fill-opacity="1" fill-rule="nonzero"/><path fill="#d3d2d2" d="M 237.667969 199.953125 C 236.398438 199.464844 233.265625 199.3125 229.84375 199.3125 C 225.339844 199.3125 220.339844 199.574219 218.4375 199.6875 C 218.355469 198.03125 218.3125 196.441406 218.292969 195.148438 C 221.5 192.910156 224.449219 192.09375 227.046875 192.09375 C 232.222656 192.09375 235.996094 195.34375 237.640625 197.070312 C 237.707031 197.695312 237.757812 198.664062 237.667969 199.953125 " fill-opacity="1" fill-rule="nonzero"/><path fill="#231f20" d="M 228.4375 210.308594 C 230.386719 208.816406 231.875 205.980469 232.273438 202.621094 C 232.898438 197.335938 230.546875 192.707031 227.03125 192.292969 C 223.507812 191.878906 220.148438 195.828125 219.523438 201.117188 C 219.117188 204.566406 220.128906 207.988281 221.742188 209.890625 C 221.742188 209.890625 226.015625 212.136719 228.4375 210.308594 " fill-opacity="1" fill-rule="nonzero"/><path fill="#231f20" d="M 228.632812 202.785156 C 228.394531 204.839844 226.859375 206.347656 225.207031 206.148438 C 223.5625 205.953125 222.421875 204.136719 222.667969 202.085938 C 222.910156 200.035156 224.445312 198.527344 226.089844 198.71875 C 227.738281 198.914062 228.878906 200.734375 228.632812 202.785156 " fill-opacity="1" fill-rule="nonzero"/><path fill="#ffffff" d="M 227.855469 193.269531 C 227.855469 193.269531 224.152344 191.84375 221.589844 196.730469 C 221.589844 196.730469 220.035156 200.519531 226.960938 200.785156 C 226.960938 200.785156 233.183594 200.523438 230.25 195.433594 C 230.25 195.433594 229.113281 193.46875 227.855469 193.269531 " fill-opacity="1" fill-rule="nonzero"/><path fill="#5d5b5d" d="M 220.476562 205.59375 C 220.476562 205.59375 222.648438 213.976562 229.582031 208.296875 C 229.582031 208.296875 231.945312 205.375 228.136719 206.949219 C 225.34375 208.113281 222.773438 206.308594 222.226562 205.796875 C 221.519531 205.132812 220.445312 204.386719 220.476562 205.59375 " fill-opacity="1" fill-rule="nonzero"/><path fill="#231f20" d="M 240.480469 197.277344 C 242.679688 196.367188 245.863281 195.113281 245.863281 195.113281 C 244.1875 195.28125 241.6875 194.023438 241.6875 194.023438 C 231.144531 183.179688 217.929688 191.21875 217.929688 191.21875 L 218.292969 195.148438 C 227.898438 188.449219 235.171875 194.476562 237.640625 197.070312 C 237.738281 198 237.804688 199.6875 237.417969 202.070312 C 237.417969 202.070312 239.304688 198.871094 240.480469 197.277344 " fill-opacity="1" fill-rule="nonzero"/><path fill="#231f20" d="M 219.992188 209.683594 C 219.992188 209.683594 220.738281 210.027344 221.894531 210.410156 C 223.0625 210.757812 224.628906 211.226562 226.234375 211.421875 C 227.035156 211.578125 227.835938 211.679688 228.601562 211.707031 C 229.359375 211.765625 230.070312 211.855469 230.679688 211.820312 C 231.90625 211.84375 232.726562 211.859375 232.726562 211.859375 C 232.726562 211.859375 231.90625 211.9375 230.679688 212.054688 C 230.070312 212.121094 229.347656 212.109375 228.578125 212.0625 C 227.800781 212.050781 226.984375 211.972656 226.175781 211.828125 C 225.351562 211.722656 224.554688 211.507812 223.808594 211.3125 C 223.058594 211.132812 222.394531 210.832031 221.816406 210.628906 C 220.679688 210.136719 219.992188 209.683594 219.992188 209.683594 " fill-opacity="1" fill-rule="nonzero"/><path fill="#231f20" d="M 214.882812 218.671875 C 214.882812 218.671875 218.273438 222.417969 213.050781 223.429688 C 213.050781 223.429688 214.699219 221.234375 214.882812 218.671875 " fill-opacity="1" fill-rule="nonzero"/><path fill="#231f20" d="M 221.4375 213.277344 C 221.4375 213.277344 221.574219 213.445312 221.746094 213.714844 C 221.910156 213.984375 222.128906 214.355469 222.34375 214.71875 C 222.519531 215.109375 222.695312 215.496094 222.828125 215.789062 C 222.949219 216.085938 223.007812 216.296875 223.007812 216.296875 C 223.007812 216.296875 222.871094 216.125 222.695312 215.855469 C 222.535156 215.582031 222.316406 215.214844 222.101562 214.851562 C 221.925781 214.457031 221.75 214.074219 221.617188 213.777344 C 221.496094 213.484375 221.4375 213.277344 221.4375 213.277344 " fill-opacity="1" fill-rule="nonzero"/><path fill="#231f20" d="M 222.226562 213.757812 C 222.226562 213.757812 222.414062 213.882812 222.675781 214.101562 C 222.929688 214.328125 223.265625 214.625 223.609375 214.925781 C 223.910156 215.261719 224.214844 215.59375 224.449219 215.84375 C 224.664062 216.105469 224.796875 216.296875 224.796875 216.296875 C 224.796875 216.296875 224.601562 216.167969 224.339844 215.949219 C 224.085938 215.722656 223.75 215.421875 223.410156 215.121094 C 223.105469 214.789062 222.800781 214.457031 222.570312 214.207031 C 222.351562 213.941406 222.226562 213.757812 222.226562 213.757812 " fill-opacity="1" fill-rule="nonzero"/><path fill="#231f20" d="M 223.972656 214.441406 C 223.972656 214.441406 224.171875 214.554688 224.453125 214.738281 C 224.722656 214.9375 225.082031 215.203125 225.441406 215.46875 C 225.773438 215.769531 226.105469 216.070312 226.359375 216.292969 C 226.59375 216.53125 226.738281 216.707031 226.738281 216.707031 C 226.738281 216.707031 226.539062 216.597656 226.261719 216.410156 C 225.992188 216.210938 225.628906 215.945312 225.269531 215.679688 C 224.9375 215.378906 224.605469 215.078125 224.355469 214.851562 C 224.121094 214.621094 223.972656 214.441406 223.972656 214.441406 " fill-opacity="1" fill-rule="nonzero"/><path fill="#231f20" d="M 225.789062 214.78125 C 225.789062 214.78125 226.035156 214.882812 226.390625 215.066406 C 226.738281 215.261719 227.203125 215.523438 227.664062 215.78125 C 228.101562 216.078125 228.546875 216.378906 228.875 216.601562 C 229.191406 216.835938 229.398438 217.015625 229.398438 217.015625 C 229.398438 217.015625 229.148438 216.910156 228.792969 216.726562 C 228.445312 216.535156 227.980469 216.273438 227.523438 216.015625 C 227.082031 215.714844 226.640625 215.417969 226.3125 215.191406 C 225.996094 214.957031 225.789062 214.78125 225.789062 214.78125 " fill-opacity="1" fill-rule="nonzero"/><path fill="#231f20" d="M 239.699219 196.929688 C 239.699219 196.929688 240.59375 197.496094 242.105469 197.835938 C 242.105469 197.835938 239.863281 199.140625 238.617188 199.140625 L 239.699219 196.929688 " fill-opacity="1" fill-rule="nonzero"/><path fill="#231f20" d="M 180.667969 211.832031 C 180.667969 211.832031 180.804688 212 180.976562 212.269531 C 181.140625 212.546875 181.359375 212.914062 181.574219 213.28125 C 181.75 213.667969 181.925781 214.058594 182.0625 214.347656 C 182.179688 214.644531 182.238281 214.851562 182.238281 214.851562 C 182.238281 214.851562 182.101562 214.683594 181.925781 214.414062 C 181.765625 214.140625 181.546875 213.773438 181.332031 213.40625 C 181.15625 213.019531 180.980469 212.628906 180.847656 212.339844 C 180.726562 212.042969 180.667969 211.832031 180.667969 211.832031 " fill-opacity="1" fill-rule="nonzero"/><path fill="#231f20" d="M 179.3125 212.074219 C 179.3125 212.074219 179.453125 212.277344 179.632812 212.589844 C 179.800781 212.914062 180.023438 213.339844 180.246094 213.769531 C 180.425781 214.214844 180.605469 214.664062 180.742188 215 C 180.867188 215.339844 180.929688 215.574219 180.929688 215.574219 C 180.929688 215.574219 180.789062 215.375 180.609375 215.058594 C 180.441406 214.734375 180.21875 214.3125 179.996094 213.882812 C 179.816406 213.4375 179.632812 212.988281 179.5 212.652344 C 179.375 212.3125 179.3125 212.074219 179.3125 212.074219 " fill-opacity="1" fill-rule="nonzero"/><path fill="#231f20" d="M 178.507812 212.3125 C 178.507812 212.3125 178.574219 212.492188 178.644531 212.765625 C 178.699219 213.039062 178.773438 213.40625 178.847656 213.773438 C 178.875 214.144531 178.902344 214.519531 178.921875 214.792969 C 178.929688 215.074219 178.914062 215.265625 178.914062 215.265625 C 178.914062 215.265625 178.84375 215.085938 178.777344 214.8125 C 178.722656 214.542969 178.648438 214.171875 178.574219 213.804688 C 178.546875 213.4375 178.519531 213.066406 178.496094 212.785156 C 178.488281 212.503906 178.507812 212.3125 178.507812 212.3125 " fill-opacity="1" fill-rule="nonzero"/><path fill="#231f20" d="M 181.457031 212.3125 C 181.457031 212.3125 181.648438 212.441406 181.910156 212.65625 C 182.164062 212.882812 182.5 213.183594 182.835938 213.484375 C 183.140625 213.820312 183.449219 214.148438 183.675781 214.402344 C 183.894531 214.664062 184.027344 214.851562 184.027344 214.851562 C 184.027344 214.851562 183.835938 214.722656 183.578125 214.503906 C 183.320312 214.285156 182.980469 213.980469 182.644531 213.679688 C 182.339844 213.347656 182.035156 213.011719 181.804688 212.761719 C 181.585938 212.503906 181.457031 212.3125 181.457031 212.3125 " fill-opacity="1" fill-rule="nonzero"/><path fill="#231f20" d="M 183.203125 213 C 183.203125 213 183.40625 213.109375 183.679688 213.296875 C 183.957031 213.496094 184.3125 213.761719 184.671875 214.027344 C 185.003906 214.332031 185.339844 214.628906 185.582031 214.859375 C 185.828125 215.09375 185.972656 215.265625 185.972656 215.265625 C 185.972656 215.265625 185.769531 215.15625 185.492188 214.972656 C 185.21875 214.769531 184.859375 214.503906 184.5 214.242188 C 184.167969 213.9375 183.835938 213.632812 183.59375 213.410156 C 183.347656 213.175781 183.203125 213 183.203125 213 " fill-opacity="1" fill-rule="nonzero"/><path fill="#231f20" d="M 185.019531 213.34375 C 185.019531 213.34375 185.269531 213.445312 185.628906 213.625 C 185.972656 213.824219 186.4375 214.085938 186.894531 214.34375 C 187.339844 214.644531 187.773438 214.9375 188.101562 215.164062 C 188.429688 215.398438 188.628906 215.574219 188.628906 215.574219 C 188.628906 215.574219 188.382812 215.472656 188.027344 215.289062 C 187.679688 215.09375 187.21875 214.832031 186.75 214.574219 C 186.316406 214.273438 185.875 213.980469 185.546875 213.757812 C 185.222656 213.519531 185.019531 213.34375 185.019531 213.34375 " fill-opacity="1" fill-rule="nonzero"/><path fill="#231f20" d="M 197.117188 183.925781 C 197.117188 183.925781 188.953125 185.511719 181.035156 177.585938 C 181.035156 177.585938 170.785156 172.648438 164.902344 173.335938 C 164.902344 173.335938 156.320312 175.257812 154.121094 176.765625 C 154.121094 176.765625 160.398438 169.90625 164.011719 169.492188 C 164.011719 169.492188 176.097656 169.070312 185.589844 174.828125 C 185.589844 174.828125 195.882812 181.15625 203.300781 178.824219 C 203.300781 178.824219 202.753906 182.144531 197.117188 183.925781 " fill-opacity="1" fill-rule="nonzero"/><path fill="#231f20" d="M 197.304688 184.902344 C 197.304688 184.902344 197.480469 184.839844 197.785156 184.726562 C 198.089844 184.640625 198.5 184.441406 198.996094 184.25 C 199.503906 184.089844 200.03125 183.738281 200.632812 183.492188 C 201.171875 183.121094 201.835938 182.875 202.367188 182.433594 C 202.917969 182.019531 203.519531 181.667969 203.953125 181.183594 C 204.179688 180.953125 204.425781 180.75 204.648438 180.546875 C 204.898438 180.363281 205.070312 180.144531 205.21875 179.921875 C 205.871094 179.097656 206.40625 178.550781 206.40625 178.550781 C 206.40625 178.550781 206.199219 179.242188 205.730469 180.277344 C 205.53125 180.8125 205.078125 181.300781 204.644531 181.859375 C 204.402344 182.125 204.199219 182.445312 203.878906 182.648438 L 202.984375 183.339844 C 202.378906 183.800781 201.652344 184.066406 201.027344 184.378906 C 200.34375 184.574219 199.71875 184.773438 199.160156 184.847656 C 198.050781 185.03125 197.304688 184.902344 197.304688 184.902344 " fill-opacity="1" fill-rule="nonzero"/><path fill="#231f20" d="M 216.847656 183.558594 C 216.847656 183.558594 218.273438 187.277344 221.4375 186.875 C 221.4375 186.875 235.835938 178.042969 243.992188 181.726562 L 244.023438 179.277344 C 244.023438 179.277344 240.066406 175.816406 235.808594 176.769531 C 235.808594 176.769531 222.226562 183.257812 216.847656 183.558594 " fill-opacity="1" fill-rule="nonzero"/><path fill="#231f20" d="M 213.039062 227.722656 C 213.039062 227.722656 212.183594 227.6875 210.945312 227.546875 C 210.324219 227.472656 209.605469 227.375 208.835938 227.167969 C 208.070312 227 207.226562 226.953125 206.386719 227.046875 C 205.558594 227.207031 204.722656 227.179688 203.960938 227.335938 C 203.582031 227.40625 203.207031 227.433594 202.855469 227.476562 C 202.507812 227.542969 202.160156 227.519531 201.863281 227.601562 C 200.660156 227.855469 199.789062 227.910156 199.789062 227.910156 L 199.765625 227.84375 C 199.765625 227.84375 200.511719 227.445312 201.734375 227.015625 C 202.34375 226.800781 203.097656 226.746094 203.890625 226.628906 C 204.6875 226.539062 205.542969 226.601562 206.390625 226.671875 C 206.816406 226.703125 207.234375 226.78125 207.648438 226.800781 C 208.066406 226.816406 208.472656 226.808594 208.875 226.800781 C 209.667969 226.792969 210.421875 226.8125 211.035156 226.988281 C 212.292969 227.230469 213.058594 227.652344 213.058594 227.652344 L 213.039062 227.722656 " fill-opacity="1" fill-rule="nonzero"/><path fill="#231f20" d="M 214.507812 158.652344 C 214.507812 158.652344 201.765625 152.617188 198.109375 152.203125 L 201.855469 154.367188 C 201.855469 154.367188 187.050781 150.691406 180.929688 151.105469 L 190.882812 137.378906 L 197.304688 134.359375 L 214.507812 142.320312 L 214.507812 158.652344 " fill-opacity="1" fill-rule="nonzero"/><path fill="#231f20" d="M 196.832031 151.78125 L 198.140625 151.929688 C 201.480469 152.308594 212.019531 157.183594 214.230469 158.21875 L 214.230469 142.496094 L 197.304688 134.664062 L 191.066406 137.597656 L 181.484375 150.804688 C 186.476562 150.6875 196.085938 152.742188 200.097656 153.667969 L 196.832031 151.78125 M 214.78125 159.085938 L 214.386719 158.902344 C 214.277344 158.847656 204.628906 154.285156 199.8125 152.871094 L 203.679688 155.097656 L 201.789062 154.632812 C 201.652344 154.597656 186.972656 150.960938 180.945312 151.378906 L 180.363281 151.417969 L 190.765625 137.132812 L 197.304688 134.058594 L 214.78125 142.144531 L 214.78125 159.085938 " fill-opacity="1" fill-rule="nonzero"/><path fill="#231f20" d="M 214.507812 158.652344 C 214.507812 158.652344 225.183594 155.628906 226.234375 155.769531 L 222.226562 154.675781 C 222.226562 154.675781 229.921875 152.476562 232.726562 153.574219 L 229.398438 141.496094 L 217.929688 143.550781 L 214.507812 158.652344 " fill-opacity="1" fill-rule="nonzero"/><path fill="#231f20" d="M 218.15625 143.792969 L 214.875 158.265625 C 216.523438 157.804688 222.175781 156.230469 224.875 155.683594 L 221.203125 154.679688 L 222.148438 154.40625 C 222.347656 154.351562 227.152344 152.992188 230.554688 152.992188 C 231.253906 152.992188 231.84375 153.050781 232.328125 153.164062 L 229.195312 141.8125 L 218.15625 143.792969 M 214.136719 159.042969 L 217.703125 143.316406 L 229.597656 141.183594 L 233.136719 154.03125 L 232.625 153.832031 C 232.136719 153.636719 231.441406 153.542969 230.554688 153.542969 C 228.132812 153.542969 224.886719 154.273438 223.28125 154.679688 L 226.304688 155.503906 L 226.199219 156.042969 L 226.195312 156.042969 C 225.03125 156.042969 218.09375 157.925781 214.582031 158.917969 L 214.136719 159.042969 " fill-opacity="1" fill-rule="nonzero"/><path fill="#231f20" d="M 164.277344 249.082031 C 164.144531 248.847656 153.199219 228.714844 152.976562 199.882812 C 152.175781 211.015625 151.660156 226.089844 153.507812 236.558594 L 153.976562 239.199219 L 152.984375 236.707031 C 152.910156 236.523438 146.359375 219.769531 146.046875 195.496094 C 144.980469 206.5 142.917969 230.480469 143.6875 244.816406 L 143.769531 246.25 L 143.164062 244.945312 C 143.046875 244.699219 133.898438 224.476562 134.132812 196.929688 C 133.75 206.277344 134.136719 218.472656 136.613281 232.640625 L 137.015625 234.945312 L 136.089844 232.796875 C 135.992188 232.574219 126.582031 210.410156 125.640625 178.558594 C 124.917969 154.042969 139.199219 134.394531 139.34375 134.199219 C 153.953125 113.570312 177.660156 111.964844 184.574219 111.964844 C 185.488281 111.964844 185.988281 111.996094 185.988281 111.996094 C 191.460938 108.738281 201.425781 108.699219 201.847656 108.699219 C 210.882812 112.941406 216.019531 122.15625 216.945312 123.925781 C 222.28125 119.992188 229.285156 118.863281 229.351562 118.859375 C 229.863281 119.070312 262.921875 138.226562 238.875 211.109375 L 238.042969 213.632812 L 238.34375 210.992188 C 238.398438 210.515625 243.527344 163.492188 228.378906 146.304688 C 227.152344 146.902344 220.199219 150.445312 218.179688 154.832031 C 218.105469 154.980469 216.441406 158.320312 214.589844 158.917969 L 214.375 158.980469 L 214.265625 158.785156 C 214.175781 158.625 205.199219 142.773438 197.34375 139.179688 C 195.683594 140.523438 177.949219 156.195312 186.457031 205.363281 L 185.929688 205.503906 C 185.839844 205.269531 177.210938 181.988281 180.175781 158.820312 C 177.128906 164.949219 165.683594 190.601562 167.046875 227.867188 L 166.503906 227.929688 C 166.457031 227.714844 162.601562 208.683594 165.085938 184.890625 C 161.707031 204.195312 159.707031 228.308594 164.785156 248.882812 L 165.277344 250.890625 L 164.277344 249.082031 " fill-opacity="1" fill-rule="nonzero"/><path fill="#231f20" d="M 201.980469 108.425781 L 201.847656 108.425781 C 201.429688 108.425781 191.550781 108.464844 185.839844 111.710938 C 185.617188 111.703125 185.1875 111.691406 184.574219 111.691406 C 177.625 111.691406 153.804688 113.304688 139.117188 134.042969 C 138.980469 134.230469 124.640625 153.953125 125.363281 178.566406 C 126.3125 210.46875 135.742188 232.683594 135.835938 232.910156 L 137.6875 237.195312 L 136.882812 232.59375 C 135.421875 224.246094 134.691406 216.585938 134.414062 209.796875 C 136.378906 230.621094 142.816406 244.851562 142.917969 245.058594 L 144.121094 247.664062 L 143.964844 244.800781 C 143.28125 232.195312 144.800781 212.109375 145.902344 199.980469 C 146.882812 221.867188 152.660156 236.636719 152.726562 236.804688 L 154.714844 241.792969 L 153.777344 236.511719 C 152.234375 227.773438 152.34375 215.820312 152.890625 205.632812 C 154.367188 231.433594 163.917969 248.996094 164.03125 249.210938 L 166.035156 252.832031 L 165.046875 248.816406 C 160.570312 230.660156 161.613281 209.726562 164.253906 191.796875 C 163.050781 212.300781 166.195312 227.789062 166.230469 227.984375 L 167.320312 227.855469 C 166.046875 193.113281 175.929688 168.484375 179.710938 160.414062 C 177.328125 183.097656 185.578125 205.367188 185.671875 205.601562 L 186.722656 205.316406 C 178.425781 157.355469 195.148438 141.390625 197.386719 139.503906 C 205.128906 143.195312 213.9375 158.761719 214.027344 158.917969 L 214.246094 159.308594 L 214.671875 159.179688 C 216.601562 158.5625 218.242188 155.328125 218.421875 154.960938 C 220.324219 150.828125 226.710938 147.445312 228.308594 146.648438 C 243.210938 163.871094 238.125 210.488281 238.070312 210.960938 L 237.46875 216.25 L 239.136719 211.195312 C 251.714844 173.070312 248.511719 149.976562 243.613281 137.3125 C 238.265625 123.5 230.007812 118.839844 229.660156 118.648438 L 229.496094 118.558594 L 229.308594 118.585938 C 229.023438 118.628906 222.386719 119.699219 217.042969 123.519531 C 215.800781 121.167969 210.804688 112.597656 202.09375 108.476562 L 201.980469 108.425781 M 201.847656 108.976562 L 201.855469 108.976562 C 211.726562 113.640625 216.847656 124.34375 216.847656 124.34375 C 222.226562 120.246094 229.398438 119.128906 229.398438 119.128906 C 229.398438 119.128906 262.867188 137.519531 238.617188 211.023438 C 238.617188 211.023438 244.023438 163.320312 228.441406 145.96875 C 228.441406 145.96875 220.203125 149.777344 217.929688 154.71875 C 217.929688 154.71875 216.269531 158.09375 214.507812 158.652344 C 214.507812 158.652344 205.375 142.398438 197.304688 138.863281 C 197.304688 138.863281 177.171875 153.304688 186.183594 205.410156 C 186.183594 205.410156 177.050781 181.15625 180.667969 157.28125 C 180.667969 157.28125 165.183594 184.570312 166.769531 227.878906 C 166.769531 227.878906 161.628906 203.121094 166.867188 174.382812 C 169.039062 164.296875 171.039062 157.828125 171.039062 157.828125 C 169.210938 163.394531 167.855469 168.957031 166.867188 174.382812 C 162.867188 192.925781 158.289062 223.699219 164.511719 248.949219 C 164.511719 248.949219 149.792969 222.375 153.996094 185.960938 C 154.042969 185.53125 154.082031 185.226562 154.101562 185.058594 C 154.109375 185.011719 154.113281 184.953125 154.121094 184.902344 C 154.121094 184.902344 154.113281 184.957031 154.101562 185.058594 C 154.066406 185.359375 154.027344 185.660156 153.996094 185.960938 C 153.320312 191.75 150.289062 219.921875 153.238281 236.601562 C 153.238281 236.601562 145.546875 217.292969 146.375 189.617188 C 146.375 189.617188 142.378906 225.621094 143.417969 244.832031 C 143.417969 244.832031 129.332031 214.320312 136.339844 176.605469 C 136.339844 176.605469 130.429688 198.863281 136.339844 232.6875 C 136.339844 232.6875 126.867188 210.714844 125.917969 178.550781 C 125.183594 153.839844 139.566406 134.359375 139.566406 134.359375 C 154.277344 113.585938 178.535156 112.238281 184.574219 112.238281 C 185.476562 112.238281 185.972656 112.269531 185.972656 112.269531 C 191.550781 109 201.527344 108.976562 201.847656 108.976562 " fill-opacity="1" fill-rule="nonzero"/><path fill="#231f20" d="M 231.035156 132.574219 C 226.125 135.597656 223.617188 140.902344 223.617188 140.902344 C 223.742188 135.40625 220.507812 127.59375 218.46875 123.230469 C 217.960938 123.546875 217.464844 123.882812 216.976562 124.246094 C 217.445312 143.125 216.238281 153.164062 214.902344 158.472656 C 216.507812 157.597656 217.929688 154.71875 217.929688 154.71875 C 220.203125 149.777344 228.441406 145.96875 228.441406 145.96875 C 244.023438 163.320312 238.617188 211.023438 238.617188 211.023438 C 238.648438 210.921875 238.679688 210.820312 238.714844 210.71875 C 250.234375 160.644531 231.035156 132.574219 231.035156 132.574219 " fill-opacity="1" fill-rule="nonzero"/><path fill="#231f20" d="M 171.039062 223.429688 C 171.039062 223.429688 170.894531 222.390625 170.792969 220.550781 C 170.660156 218.714844 170.570312 216.085938 170.558594 212.929688 C 170.554688 211.347656 170.648438 209.644531 170.695312 207.832031 C 170.765625 206.023438 170.773438 204.109375 171.011719 202.148438 C 171.199219 200.1875 171.394531 198.15625 171.589844 196.09375 C 171.738281 194.019531 172.140625 191.945312 172.417969 189.859375 C 172.757812 187.785156 173.097656 185.707031 173.433594 183.660156 C 173.820312 181.625 174.308594 179.644531 174.71875 177.710938 C 175.132812 175.78125 175.589844 173.929688 176.011719 172.171875 C 176.386719 170.402344 176.972656 168.785156 177.414062 167.269531 C 179.292969 161.242188 180.667969 157.28125 180.667969 157.28125 C 180.667969 157.28125 179.796875 161.40625 178.3125 167.503906 C 177.957031 169.035156 177.460938 170.664062 177.183594 172.445312 C 176.859375 174.21875 176.523438 176.082031 176.121094 178.003906 C 175.742188 179.929688 175.296875 181.902344 174.949219 183.929688 C 174.648438 185.96875 174.347656 188.035156 174.042969 190.105469 C 173.734375 192.171875 173.296875 194.222656 173.117188 196.273438 C 172.882812 198.316406 172.65625 200.332031 172.433594 202.277344 C 172.191406 204.226562 172.050781 206.117188 171.890625 207.90625 C 171.75 209.695312 171.5625 211.390625 171.480469 212.957031 C 171.417969 214.527344 171.324219 215.960938 171.242188 217.238281 C 171.140625 218.511719 171.148438 219.625 171.113281 220.542969 C 171.039062 222.378906 171.039062 223.429688 171.039062 223.429688 " fill-opacity="1" fill-rule="nonzero"/><path fill="#231f20" d="M 213.050781 156.523438 C 213.054688 155.8125 213.003906 155.113281 212.886719 154.417969 C 212.8125 153.71875 212.632812 153.042969 212.472656 152.363281 C 212.347656 151.675781 212.058594 151.03125 211.832031 150.378906 C 211.621094 149.714844 211.324219 149.085938 210.976562 148.488281 C 210.628906 147.886719 210.390625 147.230469 209.957031 146.6875 L 208.746094 145.011719 C 208.394531 144.425781 207.839844 143.984375 207.378906 143.480469 L 205.9375 142.007812 L 206.992188 141.882812 C 205.515625 144.410156 204.300781 147.191406 203.195312 149.964844 C 202.613281 151.339844 202.109375 152.75 201.605469 154.160156 C 201.066406 155.554688 200.675781 157.011719 200.195312 158.425781 C 199.714844 159.84375 199.359375 161.304688 198.929688 162.738281 C 198.492188 164.171875 198.199219 165.648438 197.832031 167.101562 C 197.457031 168.554688 197.128906 170.019531 196.84375 171.492188 C 196.558594 172.964844 196.191406 174.421875 195.976562 175.90625 L 195.230469 180.351562 C 194.972656 181.832031 194.828125 183.328125 194.621094 184.816406 C 194.449219 186.3125 194.1875 187.796875 194.070312 189.296875 L 193.628906 193.792969 C 193.3125 196.792969 193.296875 199.808594 193.023438 202.820312 L 192.699219 211.886719 C 192.460938 208.871094 192.28125 205.84375 192.136719 202.8125 C 192.101562 201.292969 192.085938 199.78125 192.097656 198.261719 C 192.101562 196.746094 192.074219 195.222656 192.167969 193.707031 L 192.367188 189.152344 C 192.402344 187.632812 192.582031 186.121094 192.730469 184.605469 C 192.894531 183.09375 193 181.574219 193.21875 180.070312 L 193.886719 175.550781 C 194.089844 174.039062 194.449219 172.554688 194.722656 171.058594 C 195.007812 169.558594 195.308594 168.0625 195.699219 166.589844 C 196.085938 165.113281 196.402344 163.621094 196.859375 162.164062 C 197.308594 160.703125 197.6875 159.226562 198.191406 157.785156 C 198.703125 156.34375 199.148438 154.882812 199.734375 153.46875 C 200.289062 152.046875 200.84375 150.625 201.476562 149.230469 C 202.082031 147.828125 202.789062 146.464844 203.488281 145.105469 C 204.21875 143.75 204.945312 142.425781 205.835938 141.113281 L 206.339844 140.367188 L 206.886719 140.992188 L 208.324219 142.628906 C 208.785156 143.1875 209.332031 143.679688 209.679688 144.324219 L 210.832031 146.175781 C 211.230469 146.777344 211.429688 147.492188 211.734375 148.140625 C 212.039062 148.792969 212.289062 149.472656 212.445312 150.175781 C 212.621094 150.875 212.855469 151.554688 212.921875 152.273438 L 213.074219 153.328125 C 213.148438 153.683594 213.113281 154.042969 213.136719 154.398438 C 213.171875 155.109375 213.136719 155.824219 213.050781 156.523438 " fill-opacity="1" fill-rule="nonzero"/><path fill="#231f20" d="M 199.777344 126.265625 C 184.03125 139.167969 182.238281 180.242188 182.238281 180.242188 C 179.074219 151.230469 191.644531 126.265625 191.644531 126.265625 C 177.820312 141.46875 167.753906 191.769531 167.753906 191.769531 C 167.984375 178.890625 176.066406 143.738281 176.066406 143.738281 C 160.058594 168.988281 157.636719 217.203125 157.636719 217.203125 C 155.4375 200.464844 157.636719 165.695312 157.636719 165.695312 C 151.410156 185.09375 150.308594 209.703125 150.308594 209.703125 C 147.746094 197 148.933594 167.890625 148.933594 167.890625 C 142.796875 186.371094 141.683594 215.574219 141.683594 215.574219 C 139.808594 205.964844 142.816406 180.242188 142.816406 180.242188 C 140.820312 185.640625 138.183594 202.441406 138.183594 202.441406 C 135.949219 178.980469 146.375 148.3125 146.375 148.3125 C 134.925781 161.304688 130.828125 191.742188 130.828125 191.742188 C 128.796875 177.722656 130.898438 158.855469 132.804688 146.4375 C 129.1875 154.445312 125.535156 165.800781 125.917969 178.550781 C 126.867188 210.714844 136.339844 232.6875 136.339844 232.6875 C 130.429688 198.863281 136.339844 176.605469 136.339844 176.605469 C 129.332031 214.320312 143.417969 244.832031 143.417969 244.832031 C 142.378906 225.621094 146.375 189.617188 146.375 189.617188 C 145.546875 217.292969 153.238281 236.601562 153.238281 236.601562 C 149.941406 217.949219 154.121094 184.902344 154.121094 184.902344 C 149.507812 221.859375 164.511719 248.949219 164.511719 248.949219 C 158.285156 223.683594 162.871094 192.890625 166.871094 174.351562 C 161.625 203.105469 166.769531 227.878906 166.769531 227.878906 C 165.183594 184.570312 180.667969 157.28125 180.667969 157.28125 C 177.050781 181.15625 186.183594 205.410156 186.183594 205.410156 C 177.171875 153.304688 197.304688 138.863281 197.304688 138.863281 C 204.207031 141.890625 211.890625 154.222656 213.964844 157.71875 C 213.671875 136.710938 199.777344 126.265625 199.777344 126.265625 " fill-opacity="1" fill-rule="nonzero"/><g clip-path="url(#ce5551eb6e)"><path fill="#231f20" d="M 93.621094 169.488281 C 93.621094 169.488281 94.160156 169.378906 95.105469 169.191406 C 96.054688 169.03125 97.390625 168.691406 98.996094 168.367188 C 100.597656 168.019531 102.453125 167.558594 104.425781 167.023438 C 105.417969 166.785156 106.414062 166.457031 107.449219 166.167969 C 108.484375 165.894531 109.5 165.519531 110.535156 165.195312 C 111.554688 164.828125 112.570312 164.460938 113.574219 164.105469 C 114.542969 163.667969 115.542969 163.332031 116.457031 162.898438 C 117.355469 162.4375 118.289062 162.089844 119.097656 161.648438 C 119.90625 161.199219 120.703125 160.808594 121.394531 160.382812 C 122.066406 159.929688 122.707031 159.539062 123.277344 159.191406 C 123.847656 158.855469 124.273438 158.457031 124.664062 158.175781 C 125.445312 157.605469 125.886719 157.28125 125.886719 157.28125 C 125.886719 157.28125 125.53125 157.699219 124.878906 158.417969 C 124.535156 158.753906 124.167969 159.234375 123.65625 159.671875 C 123.148438 160.117188 122.574219 160.625 121.917969 161.148438 C 121.253906 161.65625 120.492188 162.136719 119.699219 162.691406 C 118.90625 163.234375 118.007812 163.699219 117.089844 164.203125 C 116.164062 164.691406 115.171875 165.128906 114.171875 165.578125 C 113.152344 165.980469 112.109375 166.378906 111.0625 166.753906 C 108.941406 167.421875 106.800781 168.039062 104.757812 168.429688 C 102.722656 168.871094 100.785156 169.070312 99.144531 169.277344 C 95.835938 169.605469 93.621094 169.488281 93.621094 169.488281 " fill-opacity="1" fill-rule="nonzero"/></g><path fill="#7b7979" d="M 131.996094 176.605469 C 133.496094 164.148438 139.5625 144.492188 139.566406 144.472656 L 132.726562 165.148438 C 132.175781 144.105469 148.316406 129.285156 148.316406 129.285156 L 141.683594 140.441406 C 143.683594 137.519531 152.507812 129.652344 152.507812 129.652344 L 145.546875 140.574219 C 152.285156 130.792969 160.019531 126.265625 160.019531 126.265625 C 136.390625 148.320312 131.996094 176.605469 131.996094 176.605469 " fill-opacity="1" fill-rule="nonzero"/><path fill="#7b7979" d="M 151.046875 175.757812 C 149.636719 162.511719 154.839844 151.433594 154.839844 151.433594 C 151.671875 154.742188 146.375 167.339844 146.375 167.339844 L 150.679688 151.433594 L 143.136719 171.550781 C 145.707031 153.90625 156.46875 136.96875 156.46875 136.96875 L 153.058594 147.765625 C 161.625 130.691406 177.835938 122.398438 177.835938 122.398438 C 163.960938 130.511719 157.820312 146.507812 157.820312 146.507812 C 165.039062 134.761719 174.492188 130.199219 174.492188 130.199219 C 166.980469 138.066406 156.46875 162.347656 156.46875 162.347656 L 160.945312 146.507812 C 154.554688 158.054688 151.046875 175.757812 151.046875 175.757812 " fill-opacity="1" fill-rule="nonzero"/><path fill="#7b7979" d="M 158.554688 188.347656 C 159.679688 146.492188 185.019531 124.34375 185.019531 124.34375 C 167.53125 144.289062 158.554688 188.347656 158.554688 188.347656 " fill-opacity="1" fill-rule="nonzero"/><path fill="#7b7979" d="M 182.742188 167.890625 C 180.261719 136.570312 204.34375 113.914062 204.34375 113.914062 C 188.230469 131.84375 182.742188 167.890625 182.742188 167.890625 " fill-opacity="1" fill-rule="nonzero"/><path fill="#7b7979" d="M 216.007812 152.464844 C 215.765625 131.316406 207.71875 112.789062 207.71875 112.789062 C 207.730469 112.796875 207.746094 112.808594 207.757812 112.820312 C 212.558594 116.871094 215.492188 121.808594 216.476562 123.625 C 216.660156 124.042969 216.832031 124.460938 216.992188 124.882812 C 217.289062 137.867188 216.789062 146.597656 216.007812 152.464844 " fill-opacity="1" fill-rule="nonzero"/><path fill="#7b7979" d="M 216.476562 123.625 C 215.492188 121.808594 212.558594 116.871094 207.757812 112.820312 C 211.949219 115.855469 214.71875 119.609375 216.476562 123.625 " fill-opacity="1" fill-rule="nonzero"/><path fill="#7b7979" d="M 215.960938 156.347656 C 216.007812 155.046875 216.023438 153.75 216.007812 152.464844 C 216.789062 146.597656 217.289062 137.867188 216.992188 124.882812 C 222.480469 139.25 215.960938 156.347656 215.960938 156.347656 " fill-opacity="1" fill-rule="nonzero"/><path fill="#7b7979" d="M 238.617188 211.023438 C 238.648438 210.921875 238.679688 210.820312 238.714844 210.71875 C 239.355469 207.9375 239.898438 205.222656 240.359375 202.574219 C 252.90625 140.582031 228.441406 119.3125 228.441406 119.3125 C 228.71875 119.253906 228.941406 119.210938 229.101562 119.179688 C 229.289062 119.144531 229.394531 119.128906 229.398438 119.128906 C 229.398438 119.128906 247.433594 129.039062 247.433594 163.390625 C 247.433594 175.832031 245.066406 191.480469 238.617188 211.023438 " fill-opacity="1" fill-rule="nonzero"/><path fill="#7b7979" d="M 238.617188 211.023438 C 245.066406 191.480469 247.433594 175.832031 247.433594 163.390625 C 247.433594 175.832031 245.066406 191.480469 238.617188 211.023438 M 229.101562 119.179688 C 229.289062 119.144531 229.394531 119.128906 229.398438 119.128906 C 229.394531 119.128906 229.289062 119.144531 229.101562 119.179688 " fill-opacity="1" fill-rule="nonzero"/><path fill="#7b7979" d="M 238.617188 211.023438 C 238.617188 211.023438 238.65625 210.664062 238.71875 210.011719 C 238.71875 210.007812 238.722656 210.007812 238.722656 210.003906 C 238.65625 210.667969 238.617188 211.023438 238.617188 211.023438 " fill-opacity="1" fill-rule="nonzero"/><path fill="#7b7979" d="M 238.617188 211.023438 C 238.617188 211.023438 238.65625 210.667969 238.722656 210.003906 C 239.324219 207.464844 239.871094 204.988281 240.359375 202.574219 C 239.898438 205.222656 239.355469 207.9375 238.714844 210.71875 C 238.679688 210.820312 238.648438 210.921875 238.617188 211.023438 " fill-opacity="1" fill-rule="nonzero"/><g clip-path="url(#477a5f805b)"><g clip-path="url(#09a17aa78f)"><path fill="#ffffff" d="M 58.71875 186.128906 L 93.429688 186.128906 L 93.429688 219.210938 L 58.71875 219.210938 Z M 58.71875 186.128906 " fill-opacity="1" fill-rule="nonzero"/></g></g><g fill="#ffffff" fill-opacity="1"><g transform="translate(105.356825, 133.835968)"><g><path d="M -18.152344 -24.4375 C -18.425781 -24.003906 -18.222656 -23.558594 -17.839844 -23.316406 L -9.746094 -18.199219 L -10.820312 -16.5 L -18.914062 -21.621094 C -19.382812 -21.914062 -19.773438 -21.871094 -20.046875 -21.4375 L -23.171875 -16.5 C -23.445312 -16.066406 -23.328125 -15.675781 -22.859375 -15.378906 L -0.292969 -1.109375 C 0.175781 -0.8125 0.558594 -0.882812 0.832031 -1.316406 L 3.957031 -6.257812 C 4.230469 -6.691406 4.121094 -7.050781 3.652344 -7.347656 L -5.1875 -12.9375 L -4.113281 -14.636719 L 4.726562 -9.046875 C 5.195312 -8.75 5.578125 -8.820312 5.851562 -9.253906 L 8.921875 -14.109375 C 9.242188 -14.609375 9.140625 -14.988281 8.671875 -15.285156 L -13.929688 -29.578125 C -14.5 -29.941406 -14.851562 -29.65625 -15.027344 -29.378906 Z M -18.152344 -24.4375 "/></g></g></g><g fill="#ffffff" fill-opacity="1"><g transform="translate(114.431371, 119.288415)"><g><path d="M -9.734375 -20.117188 C -10.230469 -20.578125 -10.597656 -21.203125 -10.054688 -21.789062 C -9.507812 -22.375 -8.871094 -22.03125 -8.378906 -21.570312 L -1.804688 -15.449219 L -3.164062 -13.992188 Z M -3.660156 -27.265625 C -6.75 -30.148438 -11.910156 -29.574219 -14.945312 -26.316406 C -17.976562 -23.0625 -18.171875 -17.890625 -15.082031 -15.007812 L -0.15625 -1.097656 C 0.160156 -0.804688 0.644531 -0.691406 0.851562 -0.914062 L 5.0625 -5.429688 C 5.425781 -5.820312 5.222656 -6.175781 4.878906 -6.5 L 1.53125 -9.617188 L 2.890625 -11.070312 L 6.234375 -7.953125 C 6.566406 -7.644531 7.074219 -7.589844 7.355469 -7.890625 L 11.410156 -12.242188 C 11.730469 -12.585938 11.582031 -13.0625 11.269531 -13.355469 Z M -3.660156 -27.265625 "/></g></g></g><g fill="#ffffff" fill-opacity="1"><g transform="translate(126.023261, 106.800875)"><g><path d="M -3.199219 -19.917969 C -5.59375 -19.867188 -6.171875 -20.023438 -6.921875 -21.023438 C -7.339844 -21.582031 -7.394531 -22.207031 -6.820312 -22.636719 C -6.199219 -23.101562 -5.617188 -22.871094 -5.027344 -22.085938 L -4.386719 -21.230469 C -3.980469 -20.6875 -3.804688 -20.589844 -3.34375 -20.933594 L 0.839844 -24.066406 C 1.464844 -24.535156 1.46875 -24.769531 1.078125 -25.292969 L 0.402344 -26.195312 C -2.695312 -30.332031 -7.175781 -30.671875 -10.820312 -27.941406 C -13.742188 -25.753906 -15.519531 -21.148438 -12.496094 -17.109375 C -9.4375 -13.019531 -7.550781 -13.101562 -1.035156 -12.851562 C 1.164062 -12.785156 2.339844 -12.6875 3.0625 -11.71875 C 3.617188 -10.980469 3.496094 -10.351562 2.988281 -9.972656 C 2.429688 -9.554688 1.8125 -9.527344 1.074219 -10.511719 L 0.546875 -11.21875 C 0.101562 -11.808594 -0.101562 -11.910156 -0.660156 -11.492188 L -4.929688 -8.296875 C -5.453125 -7.90625 -5.394531 -7.617188 -4.867188 -6.914062 L -4.203125 -6.027344 C -2.039062 -3.136719 2.171875 -1.035156 6.914062 -4.585938 C 10.921875 -7.585938 11.414062 -12.230469 8.910156 -15.582031 C 5.75 -19.800781 1.386719 -20.019531 -3.199219 -19.917969 Z M -3.199219 -19.917969 "/></g></g></g><g fill="#ffffff" fill-opacity="1"><g transform="translate(138.360766, 97.350129)"><g><path d="M -2.898438 -30.304688 C -3.355469 -30.074219 -3.410156 -29.589844 -3.210938 -29.183594 L 1.070312 -20.617188 L -0.726562 -19.71875 L -5.007812 -28.285156 C -5.253906 -28.78125 -5.613281 -28.945312 -6.070312 -28.71875 L -11.300781 -26.105469 C -11.757812 -25.875 -11.859375 -25.480469 -11.613281 -24.988281 L 0.320312 -1.101562 C 0.570312 -0.605469 0.9375 -0.46875 1.394531 -0.695312 L 6.621094 -3.308594 C 7.082031 -3.539062 7.171875 -3.90625 6.925781 -4.398438 L 2.25 -13.757812 L 4.050781 -14.65625 L 8.722656 -5.296875 C 8.972656 -4.804688 9.339844 -4.664062 9.796875 -4.894531 L 14.933594 -7.460938 C 15.464844 -7.726562 15.574219 -8.101562 15.328125 -8.597656 L 3.375 -32.519531 C 3.074219 -33.125 2.625 -33.0625 2.332031 -32.914062 Z M -2.898438 -30.304688 "/></g></g></g><g fill="#ffffff" fill-opacity="1"><g transform="translate(152.926864, 89.256143)"><g><path d="M 18.742188 -5.320312 C 18.84375 -4.882812 19.238281 -4.554688 19.636719 -4.648438 L 25.425781 -6.019531 C 25.882812 -6.125 26.023438 -6.601562 25.925781 -7.019531 L 21.226562 -26.878906 C 20.25 -30.988281 15.640625 -33.375 11.308594 -32.351562 C 9.652344 -31.957031 8.171875 -31.101562 7.050781 -29.949219 C 5.515625 -30.472656 3.828125 -30.578125 2.171875 -30.1875 C -2.160156 -29.160156 -5.191406 -24.964844 -4.21875 -20.855469 L 0.480469 -1 C 0.578125 -0.578125 0.917969 -0.21875 1.21875 -0.289062 L 7.222656 -1.710938 C 7.742188 -1.832031 7.773438 -2.242188 7.664062 -2.699219 L 3.0625 -22.136719 C 2.90625 -22.796875 2.945312 -23.519531 3.726562 -23.707031 C 4.445312 -23.875 4.78125 -23.34375 4.964844 -22.734375 L 9.601562 -3.15625 C 9.699219 -2.738281 10.058594 -2.378906 10.355469 -2.453125 L 16.363281 -3.875 C 16.882812 -3.996094 16.894531 -4.398438 16.785156 -4.859375 L 12.183594 -24.296875 C 12.027344 -24.953125 12.085938 -25.683594 12.863281 -25.867188 C 13.644531 -26.054688 13.984375 -25.417969 14.140625 -24.757812 Z M 18.742188 -5.320312 "/></g></g></g><g fill="#ffffff" fill-opacity="1"><g transform="translate(178.62634, 83.939269)"><g><path d="M 6.878906 -27.890625 C 6.855469 -28.441406 6.59375 -28.738281 6.082031 -28.714844 L 0.242188 -28.445312 C -0.246094 -28.421875 -0.519531 -28.101562 -0.496094 -27.546875 L 0.738281 -0.875 C 0.765625 -0.324219 1.042969 -0.046875 1.558594 -0.0703125 L 7.394531 -0.34375 C 7.90625 -0.367188 8.140625 -0.664062 8.113281 -1.21875 Z M 6.878906 -27.890625 "/></g></g></g><g fill="#ffffff" fill-opacity="1"><g transform="translate(187.444386, 83.485961)"><g/></g></g><g fill="#ffffff" fill-opacity="1"><g transform="translate(196.683908, 83.076254)"><g><path d="M 32.855469 -19.988281 C 32.964844 -20.40625 32.832031 -20.886719 32.375 -21.003906 L 26.617188 -22.484375 C 26.21875 -22.585938 25.820312 -22.265625 25.707031 -21.828125 L 20.734375 -2.484375 C 20.566406 -1.828125 20.292969 -1.175781 19.4375 -1.398438 C 18.582031 -1.617188 18.617188 -2.328125 18.785156 -2.984375 L 23.761719 -22.328125 C 23.878906 -22.785156 23.875 -23.1875 23.359375 -23.320312 L 17.382812 -24.859375 C 17.082031 -24.933594 16.71875 -24.585938 16.609375 -24.167969 L 11.636719 -4.820312 C 11.46875 -4.167969 11.136719 -3.53125 10.300781 -3.746094 C 9.566406 -3.933594 9.542969 -4.660156 9.710938 -5.316406 L 14.683594 -24.664062 C 14.800781 -25.121094 14.777344 -25.527344 14.261719 -25.660156 L 8.285156 -27.195312 C 7.988281 -27.273438 7.640625 -26.917969 7.535156 -26.5 L 2.453125 -6.738281 C 1.402344 -2.648438 3.257812 1.324219 8.660156 2.714844 C 10.867188 3.28125 12.65625 2.832031 14.023438 1.699219 C 14.621094 3.335938 15.929688 4.582031 18.136719 5.148438 C 23.238281 6.460938 26.722656 3.863281 27.777344 -0.226562 Z M 32.855469 -19.988281 "/></g></g></g><g fill="#ffffff" fill-opacity="1"><g transform="translate(221.529232, 89.829864)"><g><path d="M 25.136719 -10.894531 C 27.425781 -15.296875 25.144531 -19.441406 21.160156 -21.515625 C 17.230469 -23.5625 12.527344 -23.003906 10.253906 -18.636719 L 3.730469 -6.105469 C 1.515625 -1.847656 3.695312 2.453125 7.640625 4.507812 C 11.605469 6.570312 16.320312 6.042969 18.613281 1.640625 Z M 18.148438 -15.59375 C 18.859375 -15.222656 18.679688 -14.484375 18.378906 -13.902344 L 12.1875 -2.003906 C 11.875 -1.402344 11.464844 -1.015625 10.71875 -1.402344 C 9.992188 -1.78125 10.167969 -2.476562 10.480469 -3.078125 L 16.59375 -14.828125 C 16.898438 -15.410156 17.4375 -15.960938 18.148438 -15.59375 Z M 18.148438 -15.59375 "/></g></g></g><g fill="#ffffff" fill-opacity="1"><g transform="translate(236.301756, 97.371462)"><g><path d="M 20.433594 -11.589844 C 20.96875 -11.175781 21.179688 -10.515625 20.714844 -9.917969 L 18.414062 -6.976562 C 18.011719 -6.457031 17.316406 -6.402344 16.75 -6.84375 L 16.105469 -7.351562 L 19.804688 -12.085938 Z M 13.214844 10.300781 C 13.699219 10.679688 14.230469 10.367188 14.480469 10.042969 L 16.730469 7.167969 C 19.078125 4.164062 20.019531 1.695312 19.738281 -0.578125 C 21.535156 -0.609375 23.296875 -1.234375 24.625 -2.929688 L 26.53125 -5.371094 C 29.144531 -8.714844 28.558594 -13.726562 25.039062 -16.480469 L 18.71875 -21.417969 C 18.332031 -21.722656 17.917969 -21.65625 17.574219 -21.21875 L 1.132812 -0.183594 C 0.789062 0.253906 0.824219 0.644531 1.226562 0.960938 L 5.832031 4.558594 C 6.238281 4.875 6.609375 4.800781 6.949219 4.363281 L 12.492188 -2.730469 C 13.28125 -1.410156 12.925781 0.0820312 11.421875 2.003906 L 8.730469 5.445312 C 8.300781 5.996094 8.511719 6.628906 8.980469 6.992188 Z M 13.214844 10.300781 "/></g></g></g><g fill="#ffffff" fill-opacity="1"><g transform="translate(249.793277, 107.949971)"><g><path d="M 9.8125 10.867188 C 10.117188 11.203125 10.425781 11.117188 10.835938 10.746094 L 14.550781 7.390625 C 14.945312 7.03125 15.046875 6.746094 14.746094 6.414062 L 10.402344 1.605469 L 25.910156 -12.402344 C 26.320312 -12.773438 26.382812 -13.164062 26.042969 -13.542969 L 22.125 -17.882812 C 21.78125 -18.261719 21.371094 -18.253906 20.960938 -17.882812 L 1.144531 0.015625 C 0.734375 0.386719 0.699219 0.777344 1.042969 1.15625 Z M 9.8125 10.867188 "/></g></g></g><g fill="#ffffff" fill-opacity="1"><g transform="translate(259.634705, 118.555548)"><g><path d="M 22.726562 -4.675781 L 23.140625 -4.015625 C 23.488281 -3.460938 23.640625 -2.878906 22.703125 -2.289062 L 12.085938 4.40625 C 11.53125 4.753906 10.828125 4.640625 10.445312 4.105469 L 9.972656 3.363281 Z M 1.125 0.210938 C 0.660156 0.507812 0.558594 0.886719 0.832031 1.320312 L 4.996094 7.929688 C 7.371094 11.691406 11.425781 13.550781 15.816406 10.78125 L 26.917969 3.78125 C 31.289062 1.027344 31.390625 -3.425781 29.027344 -7.21875 L 24.859375 -13.828125 C 24.597656 -14.246094 24.183594 -14.324219 23.714844 -14.027344 Z M 1.125 0.210938 "/></g></g></g><g clip-path="url(#0c177a3186)"><g clip-path="url(#a60f3e2e03)"><path fill="#ffffff" d="M 281.570312 186.128906 L 316.28125 186.128906 L 316.28125 219.210938 L 281.570312 219.210938 Z M 281.570312 186.128906 " fill-opacity="1" fill-rule="nonzero"/></g></g><g clip-path="url(#bb6750fa06)"><g clip-path="url(#f2e3f28102)"><path fill="#ffffff" d="M 180.027344 274.671875 L 214.742188 274.671875 L 214.742188 307.757812 L 180.027344 307.757812 Z M 180.027344 274.671875 " fill-opacity="1" fill-rule="nonzero"/></g></g></svg>